<svg width="16" height="16" viewBox="0 0 16 16" fill="none" xmlns="http://www.w3.org/2000/svg">
<g clip-path="url(#clip0_2911_63133)">
<path d="M13.0905 0H2.93872C1.30607 0 0 1.31141 0 2.88528V13.1147C0 14.7177 1.33571 16 2.93872 16H13.0608C14.6934 16 15.9995 14.6886 15.9995 13.1147V2.88528C16.0291 1.31141 14.6934 0 13.0906 0H13.0905ZM2.93872 1.16564H13.0608C14.0404 1.16564 14.8121 1.95258 14.8121 2.88507V6.32392L1.18734 6.32413V2.88527C1.18734 1.95257 1.98885 1.16564 2.93861 1.16564L2.93872 1.16564ZM13.0905 14.8632H2.93872C1.95917 14.8632 1.18745 14.0763 1.18745 13.1438V7.48988H14.8419V13.1438C14.8419 14.0763 14.0404 14.8632 13.0906 14.8632H13.0905Z" fill="#F2A900"/>
<path d="M5.82867 4.08012C5.82867 4.88495 5.17632 5.5373 4.37149 5.5373C3.56666 5.5373 2.91431 4.88495 2.91431 4.08012C2.91431 3.27549 3.56666 2.62293 4.37149 2.62293C5.17632 2.62293 5.82867 3.27549 5.82867 4.08012Z" fill="#F2A900"/>
<path d="M7.57745 3.78868H13.1148C13.4353 3.78868 13.6976 3.52644 13.6976 3.20586C13.6976 2.88527 13.4353 2.62304 13.1148 2.62304L7.57745 2.62283C7.25686 2.62283 6.99463 2.88508 6.99463 3.20566C6.99463 3.52645 7.25688 3.78869 7.57745 3.78869V3.78868Z" fill="#F2A900"/>
<path d="M7.57745 5.53731H13.1148C13.4353 5.53731 13.6976 5.27506 13.6976 4.95448C13.6976 4.63389 13.4353 4.37166 13.1148 4.37166H7.57745C7.25686 4.37166 6.99463 4.63391 6.99463 4.95448C6.99463 5.27507 7.25688 5.53731 7.57745 5.53731Z" fill="#F2A900"/>
</g>
<defs>
<clipPath id="clip0_2911_63133">
<rect width="16" height="16.0002" fill="white"/>
</clipPath>
</defs>
</svg>
