<svg width="16" height="16" viewBox="0 0 16 16" fill="none" xmlns="http://www.w3.org/2000/svg">
<g clip-path="url(#clip0_2911_62927)">
<path fill-rule="evenodd" clip-rule="evenodd" d="M15.9997 8.00015V2.21185C15.9997 1.62543 15.7667 1.06283 15.3515 0.64835C14.937 0.233101 14.3744 0.000152588 13.788 0.000152588H2.2117C1.62528 0.000152588 1.06268 0.233123 0.648198 0.64835C0.232948 1.06283 0 1.62546 0 2.21185V13.7881C0 14.3746 0.23297 14.9372 0.648198 15.3516C1.06268 15.7669 1.62531 15.9998 2.2117 15.9998H8C8.30809 15.9998 8.55813 15.7498 8.55813 15.4417C8.55813 15.1336 8.30809 14.8836 8 14.8836H2.2117C1.92142 14.8836 1.64234 14.7682 1.43704 14.5628C1.23161 14.3573 1.11623 14.0783 1.11623 13.7881V2.21182C1.11623 1.92154 1.23159 1.64246 1.43704 1.43717C1.64248 1.23173 1.92153 1.11635 2.2117 1.11635H13.788C14.0783 1.11635 14.3573 1.23172 14.5626 1.43717C14.7681 1.6426 14.8834 1.92166 14.8834 2.21182V8.00012C14.8834 8.30822 15.1335 8.55825 15.4416 8.55825C15.7497 8.55825 15.9997 8.30822 15.9997 8.00012L15.9997 8.00015Z" fill="white" fill-opacity="0.6"/>
<path fill-rule="evenodd" clip-rule="evenodd" d="M0.558375 5.58169H15.442C15.7501 5.58169 16.0001 5.33165 16.0001 5.02356C16.0001 4.71546 15.7501 4.46542 15.442 4.46542H0.558375C0.250281 4.46542 0.000244141 4.71546 0.000244141 5.02356C0.000244141 5.33165 0.250281 5.58169 0.558375 5.58169V5.58169Z" fill="white" fill-opacity="0.6"/>
<path fill-rule="evenodd" clip-rule="evenodd" d="M3.53478 2.79103C3.53478 3.20204 3.20165 3.53516 2.79065 3.53516C2.37964 3.53516 2.04639 3.20204 2.04639 2.79103C2.04639 2.38002 2.37964 2.04677 2.79065 2.04677C3.20165 2.04677 3.53478 2.38002 3.53478 2.79103" fill="white" fill-opacity="0.6"/>
<path fill-rule="evenodd" clip-rule="evenodd" d="M5.39525 2.79103C5.39525 3.20204 5.06212 3.53516 4.65112 3.53516C4.24011 3.53516 3.90698 3.20204 3.90698 2.79103C3.90698 2.38002 4.24011 2.04677 4.65112 2.04677C5.06212 2.04677 5.39525 2.38002 5.39525 2.79103" fill="white" fill-opacity="0.6"/>
<path fill-rule="evenodd" clip-rule="evenodd" d="M7.25573 2.79103C7.25573 3.20204 6.92247 3.53516 6.51147 3.53516C6.10046 3.53516 5.76733 3.20204 5.76733 2.79103C5.76733 2.38002 6.10046 2.04677 6.51147 2.04677C6.92247 2.04677 7.25573 2.38002 7.25573 2.79103" fill="white" fill-opacity="0.6"/>
<path fill-rule="evenodd" clip-rule="evenodd" d="M10.6045 3.34916H13.5812C13.8893 3.34916 14.1393 3.09912 14.1393 2.79103C14.1393 2.48293 13.8893 2.23289 13.5812 2.23289H10.6045C10.2964 2.23289 10.0464 2.48293 10.0464 2.79103C10.0464 3.09912 10.2964 3.34916 10.6045 3.34916V3.34916Z" fill="white" fill-opacity="0.6"/>
<path fill-rule="evenodd" clip-rule="evenodd" d="M12.0927 8.1861C9.93606 8.1861 8.18579 9.93636 8.18579 12.093C8.18579 14.2497 9.93606 15.9999 12.0927 15.9999C14.2494 15.9999 15.9996 14.2497 15.9996 12.093C15.9996 9.93636 14.2494 8.1861 12.0927 8.1861V8.1861ZM12.0927 9.30236C13.6332 9.30236 14.8834 10.5525 14.8834 12.093C14.8834 13.6335 13.6332 14.8837 12.0927 14.8837C10.5522 14.8837 9.30205 13.6335 9.30205 12.093C9.30205 10.5525 10.5522 9.30236 12.0927 9.30236V9.30236Z" fill="white" fill-opacity="0.6"/>
<path fill-rule="evenodd" clip-rule="evenodd" d="M11.3672 10.2512V11.9256C11.3672 12.0737 11.426 12.2158 11.5309 12.32L12.8704 13.6595C13.0877 13.8775 13.442 13.8775 13.6593 13.6595C13.8773 13.4422 13.8773 13.0879 13.6593 12.8707L12.4835 11.6941V10.2512C12.4835 9.94308 12.2334 9.69304 11.9253 9.69304C11.6172 9.69304 11.3672 9.94308 11.3672 10.2512H11.3672Z" fill="white" fill-opacity="0.6"/>
</g>
<defs>
<clipPath id="clip0_2911_62927">
<rect width="16" height="16.0002" fill="white"/>
</clipPath>
</defs>
</svg>
