<svg width="16" height="16" viewBox="0 0 16 16" fill="none" xmlns="http://www.w3.org/2000/svg">
<g clip-path="url(#clip0_2911_62984)">
<path d="M13.8666 3.20242H2.1333C0.959937 3.20242 0 4.19779 0 5.3887V16.0003H16V5.3887C16 4.19779 15.0401 3.20242 13.8667 3.20242H13.8666ZM14.7555 14.7561H9.24441V12.943C9.24441 12.552 8.95994 12.2676 8.56883 12.2676H7.43105C7.03994 12.2676 6.75546 12.552 6.75546 12.943L6.75558 14.7561H1.24447V5.38874C1.24447 4.89104 1.63558 4.44667 2.13336 4.44667H13.8667C14.3645 4.44667 14.7556 4.89104 14.7556 5.38874L14.7555 14.7561Z" fill="white" fill-opacity="0.6"/>
<path d="M13.3332 12.9964C13.3332 12.6053 13.0133 12.2676 12.6043 12.2676H11.3776C10.9865 12.2676 10.6487 12.5875 10.6487 12.9964V13.3342C10.6487 13.7252 10.9686 14.063 11.3776 14.063H12.6043C12.9954 14.063 13.3332 13.7431 13.3332 13.3342V12.9964Z" fill="white" fill-opacity="0.6"/>
<path d="M5.5112 12.9964C5.5112 12.6053 5.19126 12.2676 4.78228 12.2676H3.55558C3.16447 12.2676 2.82666 12.5875 2.82666 12.9964V13.3342C2.82666 13.7252 3.1466 14.063 3.55558 14.063H4.78228C5.17339 14.063 5.5112 13.7431 5.5112 13.3342V12.9964Z" fill="white" fill-opacity="0.6"/>
<path d="M13.3332 9.44142C13.3332 9.05037 13.0133 8.71262 12.6043 8.71262H11.3776C10.9865 8.71262 10.6487 9.0325 10.6487 9.44142V9.77917C10.6487 10.1702 10.9686 10.508 11.3776 10.508H12.6043C12.9954 10.508 13.3332 10.1881 13.3332 9.77917V9.44142Z" fill="white" fill-opacity="0.6"/>
<path d="M9.42228 9.44142C9.42228 9.05037 9.10234 8.71262 8.69336 8.71262H7.28898C6.89787 8.71262 6.56006 9.0325 6.56006 9.44142V9.77917C6.56006 10.1702 6.88 10.508 7.28898 10.508H8.69336C9.08447 10.508 9.42228 10.1881 9.42228 9.77917V9.44142Z" fill="white" fill-opacity="0.6"/>
<path d="M5.5112 9.44142C5.5112 9.05037 5.19126 8.71262 4.78228 8.71262H3.55558C3.16447 8.71262 2.82666 9.0325 2.82666 9.44142V9.77917C2.82666 10.1702 3.1466 10.508 3.55558 10.508H4.78228C5.17339 10.508 5.5112 10.1881 5.5112 9.77917V9.44142Z" fill="white" fill-opacity="0.6"/>
<path d="M13.3332 6.06419C13.3332 5.67314 13.0133 5.33539 12.6043 5.33539H11.3776C10.9865 5.33539 10.6487 5.65527 10.6487 6.06419V6.40195C10.6487 6.79299 10.9686 7.13075 11.3776 7.13075H12.6043C12.9954 7.13075 13.3332 6.81086 13.3332 6.40195V6.06419Z" fill="white" fill-opacity="0.6"/>
<path d="M9.42228 6.06419C9.42228 5.67314 9.10234 5.33539 8.69336 5.33539H7.28898C6.89787 5.33539 6.56006 5.65527 6.56006 6.06419V6.40195C6.56006 6.79299 6.88 7.13075 7.28898 7.13075H8.69336C9.08447 7.13075 9.42228 6.81086 9.42228 6.40195V6.06419Z" fill="white" fill-opacity="0.6"/>
<path d="M5.5112 6.06419C5.5112 5.67314 5.19126 5.33539 4.78228 5.33539H3.55558C3.16447 5.33539 2.82666 5.65527 2.82666 6.06419V6.40195C2.82666 6.79299 3.1466 7.13075 3.55558 7.13075H4.78228C5.17339 7.13075 5.5112 6.81086 5.5112 6.40195V6.06419Z" fill="white" fill-opacity="0.6"/>
<path d="M7.11114 1.67119L7.05781 2.32883C7.04008 2.45331 7.14673 2.55994 7.27111 2.55994C7.3067 2.55994 7.32443 2.55994 7.36002 2.54221L7.96444 2.27564L8.56886 2.54221C8.60445 2.55994 8.62218 2.55994 8.65777 2.55994C8.78228 2.55994 8.87107 2.45331 8.87107 2.32883L8.78228 1.65348L9.22673 1.15578C9.33337 1.0313 9.26232 0.853624 9.12008 0.818026L8.46233 0.675811L8.12452 0.106951C8.08892 0.0359051 8.01787 0.000320435 7.94669 0.000320435C7.87563 0.000320435 7.80445 0.0359051 7.76886 0.106951L7.43104 0.675811L6.79104 0.818026C6.63107 0.853611 6.57774 1.04914 6.68439 1.15578L7.11114 1.67119Z" fill="white" fill-opacity="0.6"/>
<path d="M10.6666 1.67119L10.6132 2.32883C10.5955 2.45331 10.7021 2.55994 10.8265 2.55994C10.8621 2.55994 10.8798 2.55994 10.9154 2.54221L11.5198 2.27564L12.1243 2.54221C12.1599 2.55994 12.1776 2.55994 12.2132 2.55994C12.3377 2.55994 12.4265 2.45331 12.4265 2.32883L12.3377 1.65348L12.7821 1.15578C12.8888 1.0313 12.8177 0.853624 12.6755 0.818026L12.0177 0.675811L11.6799 0.106951C11.6443 0.0359051 11.5733 0.000320435 11.5021 0.000320435C11.431 0.000320435 11.3599 0.0359051 11.3243 0.106951L10.9865 0.675811L10.3465 0.818026C10.1865 0.853611 10.1332 1.04914 10.2398 1.15578L10.6666 1.67119Z" fill="white" fill-opacity="0.6"/>
<path d="M3.55547 1.67119L3.50215 2.32883C3.48441 2.45331 3.59106 2.55994 3.71544 2.55994C3.75103 2.55994 3.76876 2.55994 3.80436 2.54221L4.40877 2.27564L5.01318 2.54221C5.04877 2.55994 5.0665 2.55994 5.10209 2.55994C5.2266 2.55994 5.31539 2.45331 5.31539 2.32883L5.2266 1.65348L5.67104 1.15578C5.77769 1.0313 5.70663 0.853624 5.5644 0.818026L4.90665 0.675811L4.56884 0.106951C4.53325 0.0359051 4.46219 0.000320435 4.39101 0.000320435C4.31995 0.000320435 4.24877 0.0359051 4.21318 0.106951L3.87537 0.675811L3.23537 0.818026C3.0754 0.853611 3.02208 1.04914 3.12873 1.15578L3.55547 1.67119Z" fill="white" fill-opacity="0.6"/>
</g>
<defs>
<clipPath id="clip0_2911_62984">
<rect width="16" height="16.0002" fill="white" transform="translate(0 0.000320435)"/>
</clipPath>
</defs>
</svg>
