<svg width="16" height="16" viewBox="0 0 16 16" fill="none" xmlns="http://www.w3.org/2000/svg">
<g clip-path="url(#clip0_2911_63115)">
<g clip-path="url(#clip1_2911_63115)">
<path d="M5.47294 11.6268H4.08916H3.88675L4.43878 12.1789V10.186V9.90259L3.88675 10.4546H5.27053H5.47294L4.92091 9.90259V11.8955V12.1789C4.92091 12.4678 5.17485 12.7438 5.47294 12.7309C5.77289 12.718 6.02498 12.488 6.02498 12.1789V10.186V9.90259C6.02498 9.60449 5.77288 9.35056 5.47294 9.35056H4.08916H3.88675C3.58865 9.35056 3.33472 9.60265 3.33472 9.90259V11.8955V12.1789C3.33472 12.477 3.58682 12.7309 3.88675 12.7309H5.27053H5.47294C5.76184 12.7309 6.03786 12.4769 6.02498 12.1789C6.0121 11.8789 5.78208 11.6268 5.47294 11.6268Z" fill="white" fill-opacity="0.6"/>
<path d="M8.78324 11.6268H7.39946H7.19705L7.74908 12.1789V10.911V8.89973V8.43417L7.19705 8.98621H8.58083H8.78324L8.23121 8.43417V9.70204V11.7133V12.1789C8.23121 12.4678 8.48515 12.7438 8.78324 12.7309C9.08319 12.718 9.33527 12.488 9.33527 12.1789V10.911V8.89973V8.43417C9.33527 8.13607 9.08318 7.88214 8.78324 7.88214H7.39946H7.19705C6.89895 7.88214 6.64502 8.13424 6.64502 8.43417V9.70204V11.7133V12.1789C6.64502 12.477 6.89712 12.7309 7.19705 12.7309H8.58083H8.78324C9.07214 12.7309 9.34816 12.4769 9.33527 12.1789C9.32239 11.8789 9.09238 11.6268 8.78324 11.6268Z" fill="white" fill-opacity="0.6"/>
<path d="M12.0936 11.6268H10.7098H10.5074L11.0594 12.1788V10.1694V6.99149V6.26096L10.5074 6.81299H11.8911H12.0936L11.5415 6.26096V8.27039V11.4483V12.1788C11.5415 12.4677 11.7955 12.7438 12.0936 12.7309C12.3935 12.718 12.6456 12.488 12.6456 12.1788V10.1694V6.99149V6.26096C12.6456 5.96285 12.3935 5.70892 12.0936 5.70892H10.7098H10.5074C10.2093 5.70892 9.95532 5.96102 9.95532 6.26096V8.27039V11.4483V12.1788C9.95532 12.4769 10.2074 12.7309 10.5074 12.7309H11.8911H12.0936C12.3825 12.7309 12.6585 12.4769 12.6456 12.1788C12.6309 11.8789 12.4027 11.6268 12.0936 11.6268Z" fill="white" fill-opacity="0.6"/>
<path d="M14.1014 1.00551V1.38089V2.40033V3.91659V5.75856V7.77352V9.80689V11.7004V13.2976V14.444C14.1014 14.6225 14.1033 14.8028 14.1014 14.9813C14.1014 15.0053 14.1014 15.0274 14.0978 15.0513C14.1051 15.0016 14.1106 14.9537 14.118 14.9041C14.1125 14.9464 14.1033 14.985 14.0886 15.0237L14.1438 14.8912C14.1346 14.9133 14.1217 14.9335 14.1106 14.9556C14.0702 15.0384 14.21 14.8489 14.1309 14.928C14.0554 15.0034 14.2155 14.882 14.1677 14.9022C14.1419 14.9133 14.118 14.9298 14.0922 14.9409L14.2247 14.8857C14.1861 14.9004 14.1475 14.9096 14.1051 14.9151C14.1548 14.9077 14.2027 14.9022 14.2523 14.8949C14.1272 14.9059 14.0002 14.8985 13.8751 14.8985H12.9753H10.009H6.39853H3.29605C2.79739 14.8985 2.29687 14.9022 1.79817 14.8985C1.77609 14.8985 1.75216 14.8985 1.73008 14.8949C1.77977 14.9022 1.82761 14.9077 1.87729 14.9151C1.83497 14.9096 1.79633 14.9004 1.75769 14.8857L1.89018 14.9409C1.86809 14.9317 1.84785 14.9188 1.82577 14.9077C1.74296 14.8673 1.9325 15.0071 1.85337 14.928C1.77793 14.8525 1.89938 15.0126 1.87913 14.9648C1.86809 14.939 1.85153 14.9151 1.84049 14.8893L1.89569 15.0218C1.88097 14.9832 1.87177 14.9445 1.86625 14.9022C1.87361 14.9519 1.87913 14.9998 1.88649 15.0494C1.87729 14.9409 1.88281 14.8286 1.88281 14.72V13.949V11.4078V8.3072V5.63162C1.88281 5.19736 1.89385 4.76309 1.88281 4.33065V4.31224C1.82945 4.44289 1.77424 4.5717 1.72088 4.70236C2.14596 4.27728 2.56919 3.85406 2.99427 3.42898C3.66959 2.75366 4.34494 2.0783 5.02026 1.40298L5.48215 0.941093C5.3515 0.994455 5.2227 1.04966 5.09204 1.10302H6.00289H8.19081H10.8241H13.1077C13.4702 1.10302 13.8308 1.09934 14.1934 1.10302C14.2154 1.10302 14.2357 1.10486 14.2559 1.10671C14.2062 1.09934 14.1584 1.09382 14.1087 1.08646C14.151 1.09198 14.1897 1.10118 14.2283 1.11591C14.1842 1.0975 14.14 1.0791 14.0958 1.0607C14.1179 1.0699 14.1382 1.08278 14.1602 1.09383C14.243 1.13431 14.0535 0.994459 14.1326 1.07358C14.2081 1.14903 14.0866 0.988938 14.1069 1.03678C14.1179 1.06254 14.1345 1.08646 14.1455 1.11223C14.1271 1.06806 14.1087 1.0239 14.0903 0.979736C14.105 1.01838 14.1142 1.05702 14.1198 1.09935C14.1124 1.04966 14.1069 1.00182 14.0995 0.952134C14.0995 0.972375 14.1014 0.988938 14.1014 1.0055C14.1087 1.2944 14.3498 1.57042 14.6534 1.55753C14.946 1.54465 15.2146 1.31463 15.2054 1.0055C15.1907 0.446094 14.7491 0.00631177 14.186 0.000793457H13.9707H12.9163H11.2767H9.36847H7.51361H6.00469H5.16742C4.99076 0.000793457 4.83067 0.0394352 4.69267 0.166407C4.62275 0.230813 4.55834 0.300737 4.4921 0.366981C4.14616 0.712918 3.80022 1.05886 3.4561 1.40298C3.0108 1.84828 2.56365 2.29543 2.11831 2.74076C1.78341 3.07567 1.44851 3.41057 1.11176 3.74732C1.05472 3.80436 0.993991 3.86141 0.938788 3.92029C0.809979 4.06198 0.776855 4.22207 0.776855 4.39688V5.16053V6.54065V8.298V10.2228V12.0813V13.6399V14.6869V14.9427C0.776855 15.2187 0.861501 15.4727 1.04736 15.6806C1.24241 15.9014 1.53499 16.0008 1.82204 16.0008H2.03734H2.95005H4.35776H6.10589H8.01963H9.92234H11.6631H13.0616H13.9614H14.1675C14.5245 15.999 14.8447 15.8389 15.0453 15.5408C15.2127 15.2905 15.2072 15.0218 15.2072 14.7421V13.8902V12.5745V10.9165V9.05428V7.12765V5.25253V3.56881V2.21632V1.31464V1.00182C15.2072 0.712918 14.9533 0.436898 14.6552 0.449786C14.3534 0.468187 14.1013 0.696363 14.1013 1.00552L14.1014 1.00551Z" fill="white" fill-opacity="0.6"/>
<path d="M1.71721 4.70436C2.14229 4.27928 2.56552 3.85606 2.99059 3.43098C3.66592 2.75566 4.34127 2.0803 5.01659 1.40498C5.17116 1.25041 5.32389 1.09768 5.47848 0.943092C5.16381 0.812443 4.85101 0.683634 4.53633 0.552974V1.82818V3.84865V4.31421L5.08836 3.76218H3.81316H1.79268H1.32713C1.03823 3.76218 0.762205 4.01612 0.775092 4.31421C0.787973 4.61415 1.01799 4.86624 1.32713 4.86624H2.60233H4.6228H5.08836C5.38646 4.86624 5.64039 4.61414 5.64039 4.31421V3.03901V1.01853V0.552974C5.64039 0.332158 5.50238 0.133414 5.30183 0.0487886C5.09941 -0.0358569 4.85653 0.00462522 4.69824 0.162876C4.27317 0.587955 3.84994 1.01118 3.42486 1.43626C2.74954 2.11158 2.07418 2.78694 1.39886 3.46226C1.24429 3.61683 1.09156 3.76956 0.936974 3.92415C0.732719 4.1284 0.717998 4.50381 0.936974 4.70438C1.15779 4.9068 1.50004 4.92336 1.71721 4.70438V4.70436Z" fill="white" fill-opacity="0.6"/>
</g>
</g>
<defs>
<clipPath id="clip0_2911_63115">
<rect width="16" height="16" fill="white" transform="translate(0 0.000793457)"/>
</clipPath>
<clipPath id="clip1_2911_63115">
<rect width="16" height="16" fill="white" transform="translate(0 0.000793457)"/>
</clipPath>
</defs>
</svg>
