<svg width="16" height="16" viewBox="0 0 16 16" fill="none" xmlns="http://www.w3.org/2000/svg">
<g clip-path="url(#clip0_2911_63032)">
<g clip-path="url(#clip1_2911_63032)">
<path d="M1.47634 15.0005H1.6788V15.5005C1.6788 15.6792 1.77411 15.8443 1.9288 15.9336C2.08348 16.0229 2.27411 16.0229 2.4288 15.9336C2.58348 15.8443 2.6788 15.6792 2.6788 15.5005V15.0005H5.4288V15.5005C5.4288 15.6792 5.52411 15.8443 5.6788 15.9336C5.83348 16.0229 6.02411 16.0229 6.1788 15.9336C6.33348 15.8443 6.4288 15.6792 6.4288 15.5005V15.0005H6.7788C7.07568 14.9999 7.36017 14.8817 7.56997 14.6717C7.7799 14.4619 7.89808 14.1773 7.89877 13.8806V5.68314C7.8981 5.38637 7.7799 5.10177 7.56997 4.89197C7.36014 4.68203 7.07565 4.56385 6.7788 4.56317H6.0288V0.500595C6.0288 0.368007 5.97612 0.240772 5.88237 0.147024C5.78862 0.0532751 5.66138 0.000595093 5.5288 0.000595093H2.74131C2.60872 0.000595093 2.48149 0.0532751 2.38774 0.147024C2.29399 0.240772 2.24131 0.368007 2.24131 0.500595V4.56317H1.49131C1.19442 4.56384 0.909938 4.68203 0.700138 4.89197C0.490203 5.10179 0.372024 5.3864 0.371338 5.68314V13.8806C0.371896 14.1748 0.488078 14.457 0.694766 14.6665C0.901464 14.876 1.18205 14.996 1.47634 15.0005H1.47634ZM3.24128 1.00054H5.01628V4.56311H3.24128V1.00054ZM1.35623 5.68311C1.35556 5.65108 1.36806 5.62017 1.39071 5.59751C1.41337 5.57485 1.44428 5.56246 1.47632 5.56313H6.77889C6.8107 5.56313 6.84128 5.57575 6.86371 5.59829C6.88625 5.62084 6.89887 5.65131 6.89887 5.68312V13.8805C6.89887 13.9124 6.88626 13.9428 6.86371 13.9654C6.84128 13.9879 6.8107 14.0005 6.77889 14.0005H1.47632C1.44428 14.0012 1.41337 13.9888 1.39071 13.9662C1.36806 13.9435 1.35556 13.9126 1.35623 13.8805V5.68311Z" fill="white" fill-opacity="0.6"/>
<path d="M2.4912 13.0005H5.7412C5.91989 13.0005 6.08495 12.9052 6.17423 12.7505C6.26352 12.5958 6.26352 12.4052 6.17423 12.2505C6.08495 12.0958 5.91988 12.0005 5.7412 12.0005H2.4912C2.31252 12.0005 2.14746 12.0958 2.05818 12.2505C1.96889 12.4052 1.96889 12.5958 2.05818 12.7505C2.14746 12.9052 2.31253 13.0005 2.4912 13.0005Z" fill="white" fill-opacity="0.6"/>
<path d="M2.4912 11.5005H5.7412C5.91989 11.5005 6.08495 11.4052 6.17423 11.2505C6.26352 11.0958 6.26352 10.9052 6.17423 10.7505C6.08495 10.5958 5.91988 10.5005 5.7412 10.5005H2.4912C2.31252 10.5005 2.14746 10.5958 2.05818 10.7505C1.96889 10.9052 1.96889 11.0958 2.05818 11.2505C2.14746 11.4052 2.31253 11.5005 2.4912 11.5005Z" fill="white" fill-opacity="0.6"/>
<path d="M9.20381 15.0005H9.40883V15.5005C9.40883 15.6792 9.50414 15.8443 9.65883 15.9335C9.81352 16.0228 10.0041 16.0228 10.1588 15.9335C10.3135 15.8443 10.4088 15.6792 10.4088 15.5005V15.0005H13.1588V15.5005C13.1588 15.6792 13.2542 15.8443 13.4088 15.9335C13.5635 16.0228 13.7542 16.0228 13.9088 15.9335C14.0635 15.8443 14.1588 15.6792 14.1588 15.5005V15.0005H14.5064H14.5063C14.8032 14.9998 15.0877 14.8817 15.2976 14.6717C15.5075 14.4619 15.6257 14.1773 15.6264 13.8805V8.43312C15.6268 8.17553 15.5385 7.92575 15.3764 7.72563C15.5237 7.49684 15.5946 7.22732 15.5788 6.95566L15.2889 2.75052C15.2661 2.42886 15.1226 2.12763 14.887 1.90743C14.6515 1.68712 14.3413 1.56412 14.0188 1.563H13.7413V0.500488C13.7413 0.3679 13.6887 0.240665 13.5949 0.146917C13.5012 0.0531683 13.3739 0.000488281 13.2413 0.000488281H10.4663C10.3337 0.000488281 10.2065 0.0531683 10.1128 0.146917C10.019 0.240665 9.96632 0.3679 9.96632 0.500488V1.563H9.71632C9.39301 1.56278 9.0816 1.68532 8.845 1.90563C8.6084 2.12605 8.46409 2.42795 8.44132 2.75049L8.14377 6.95049C8.12681 7.2227 8.1969 7.49323 8.34377 7.72303C8.18049 7.92337 8.0921 8.17449 8.09377 8.43297V13.8804C8.09377 14.1757 8.2104 14.4591 8.41832 14.6688C8.62624 14.8786 8.90849 14.9977 9.2038 15.0004L9.20381 15.0005ZM10.9538 1.00052H12.7413V1.56303H10.9663L10.9538 1.00052ZM9.42635 2.81546C9.43807 2.67383 9.55671 2.56501 9.69879 2.56546H14.0188C14.1605 2.56624 14.2785 2.67439 14.2913 2.81546L14.5738 7.0206C14.5775 7.09549 14.5504 7.16871 14.4988 7.22317C14.4484 7.27897 14.3766 7.31078 14.3014 7.31067H9.41395C9.33828 7.31011 9.26618 7.27841 9.21461 7.22306C9.16305 7.1677 9.1366 7.09359 9.1414 7.01815L9.42635 2.81546ZM9.08629 8.43289C9.08562 8.4013 9.09768 8.37083 9.11989 8.34818C9.14199 8.32564 9.17223 8.31291 9.20382 8.31291H14.5064C14.5384 8.31224 14.5694 8.32463 14.592 8.34729C14.6147 8.36994 14.6272 8.40086 14.6265 8.43289V13.8803C14.6272 13.9123 14.6147 13.9433 14.592 13.9659C14.5694 13.9886 14.5384 14.001 14.5064 14.0003H9.20382C9.17223 14.0003 9.14199 13.9876 9.11989 13.965C9.09768 13.9424 9.08562 13.9119 9.08629 13.8803V8.43289Z" fill="white" fill-opacity="0.6"/>
<path d="M10.2412 13.0005H13.4912C13.6699 13.0005 13.8349 12.9052 13.9242 12.7505C14.0135 12.5958 14.0135 12.4052 13.9242 12.2505C13.8349 12.0958 13.6699 12.0005 13.4912 12.0005H10.2412C10.0625 12.0005 9.89746 12.0958 9.80818 12.2505C9.71889 12.4052 9.71889 12.5958 9.80818 12.7505C9.89746 12.9052 10.0625 13.0005 10.2412 13.0005Z" fill="white" fill-opacity="0.6"/>
<path d="M10.2412 11.5005H13.4912C13.6699 11.5005 13.8349 11.4052 13.9242 11.2505C14.0135 11.0958 14.0135 10.9052 13.9242 10.7505C13.8349 10.5958 13.6699 10.5005 13.4912 10.5005H10.2412C10.0625 10.5005 9.89746 10.5958 9.80818 10.7505C9.71889 10.9052 9.71889 11.0958 9.80818 11.2505C9.89746 11.4052 10.0625 11.5005 10.2412 11.5005Z" fill="white" fill-opacity="0.6"/>
<path d="M10.4912 4.00052H12.2412C12.2412 4.17921 12.3365 4.34427 12.4912 4.43355C12.6459 4.52284 12.8365 4.52284 12.9912 4.43355C13.1459 4.34427 13.2412 4.1792 13.2412 4.00052C13.4199 4.00052 13.5849 3.90521 13.6742 3.75052C13.7635 3.59583 13.7635 3.40521 13.6742 3.25052C13.5849 3.09583 13.4199 3.00052 13.2412 3.00052H10.4912C10.3125 3.00052 10.1475 3.09583 10.0582 3.25052C9.96889 3.40521 9.96889 3.59584 10.0582 3.75052C10.1475 3.90521 10.3125 4.00052 10.4912 4.00052Z" fill="white" fill-opacity="0.6"/>
</g>
<path d="M19.5327 4.06014C19.3049 3.88934 19.0771 3.71855 18.8304 3.54762C18.0522 3.03511 17.2359 2.56059 16.4009 2.18101C16.287 2.12408 16.1352 2.16207 16.0593 2.27594C15.9644 2.3898 15.9834 2.5606 16.1162 2.65552C16.8375 3.18698 17.5018 3.77535 18.1092 4.40175C18.28 4.57255 18.4319 4.76242 18.5838 4.93321C18.8114 4.55363 19.1151 4.23096 19.5327 4.06016L19.5327 4.06014Z" fill="white" fill-opacity="0.6"/>
</g>
<defs>
<clipPath id="clip0_2911_63032">
<rect width="16" height="16.0002" fill="white" transform="translate(0 0.000488281)"/>
</clipPath>
<clipPath id="clip1_2911_63032">
<rect width="16" height="16" fill="white" transform="translate(0 0.000488281)"/>
</clipPath>
</defs>
</svg>
