<svg width="16" height="16" viewBox="0 0 16 16" fill="none" xmlns="http://www.w3.org/2000/svg">
<g clip-path="url(#clip0_2911_63094)">
<path d="M7.99789 0.00102179C6.40261 -0.00101043 4.84339 0.474656 3.52075 1.36678C2.19811 2.2589 1.17321 3.52664 0.577651 5.00633C-0.0180255 6.48623 -0.156808 8.11064 0.178993 9.67014C0.514916 11.2297 1.30997 12.6529 2.46187 13.7565C2.46642 13.761 2.46821 13.768 2.47275 13.7719C2.51901 13.8165 2.56934 13.8542 2.61608 13.8971C2.74459 14.0113 2.87309 14.1296 3.00853 14.2398C3.08109 14.2969 3.15652 14.3541 3.23075 14.4065C3.35866 14.5019 3.48669 14.5973 3.62032 14.6853C3.71118 14.7425 3.80489 14.7996 3.8979 14.8567C4.02126 14.931 4.14415 15.0058 4.27146 15.0738C4.3794 15.131 4.48962 15.1801 4.59937 15.2321C4.71939 15.2892 4.83761 15.3464 4.96038 15.3978C5.08315 15.4492 5.20664 15.4892 5.33107 15.5337C5.45563 15.5783 5.56298 15.6194 5.68239 15.656C5.81723 15.6965 5.95542 15.728 6.09252 15.7617C6.2068 15.7896 6.31762 15.8217 6.43524 15.8445C6.59291 15.8759 6.75286 15.8959 6.91279 15.9177C7.01165 15.9314 7.10812 15.9508 7.20817 15.9605C7.46985 15.9862 7.73368 16.0005 7.99989 16.0005C8.26611 16.0005 8.53005 15.9863 8.79161 15.9605C8.89154 15.9508 8.98813 15.9313 9.08699 15.9177C9.24694 15.8959 9.40688 15.8759 9.56454 15.8445C9.67882 15.8217 9.79298 15.7874 9.90726 15.7617C10.0444 15.7279 10.1826 15.6965 10.3174 15.656C10.4368 15.6194 10.5522 15.5748 10.6687 15.5337C10.7852 15.4926 10.9177 15.448 11.0394 15.3978C11.1611 15.3475 11.2805 15.2886 11.4004 15.2321C11.5101 15.1801 11.6204 15.131 11.7283 15.0738C11.8557 15.0058 11.9785 14.931 12.1019 14.8567C12.195 14.7996 12.2887 14.7476 12.3795 14.6853C12.5131 14.5973 12.6411 14.5019 12.769 14.4065C12.8433 14.3494 12.9187 14.298 12.9912 14.2398C13.1267 14.1312 13.2552 14.0159 13.3837 13.8971C13.4306 13.8543 13.4808 13.8165 13.527 13.7719C13.5316 13.768 13.5334 13.761 13.5379 13.7565H13.5381C14.6904 12.6527 15.4856 11.2289 15.8212 9.66892C16.1569 8.10893 16.0178 6.48412 15.4216 5.00419C14.8255 3.52404 13.7997 2.25642 12.4765 1.36464C11.1533 0.47285 9.59327 -0.00219147 7.99751 0.00080757L7.99789 0.00102179ZM9.11751 7.69295C9.11464 7.69295 9.11117 7.69295 9.10783 7.69641V7.6963C8.95637 7.78069 8.79617 7.84847 8.63028 7.89856C8.60063 7.90717 8.57314 7.91852 8.5417 7.92593C8.48456 7.94076 8.42455 7.95104 8.36573 7.96132C8.25504 7.98068 8.14291 7.99204 8.03042 7.99503H7.96527H7.96539C7.8529 7.99204 7.74078 7.98068 7.63008 7.96132C7.57294 7.95104 7.51245 7.94076 7.45412 7.92593C7.42387 7.91852 7.39698 7.90705 7.36554 7.89856C7.19961 7.84847 7.03944 7.78069 6.88799 7.6963L6.87771 7.69283C6.28634 7.36039 5.87333 6.78216 5.75043 6.115C5.62755 5.44771 5.80758 4.76035 6.24163 4.23904C6.67582 3.7176 7.31918 3.41611 7.99769 3.41611C8.67609 3.41611 9.31945 3.71759 9.75363 4.23904C10.1877 4.76035 10.3677 5.44771 10.2448 6.115C10.1219 6.78216 9.70892 7.36036 9.11756 7.69283L9.11751 7.69295ZM6.54296 8.81257C7.46342 9.25046 8.53236 9.25046 9.45282 8.81257C10.3512 9.1162 11.1333 9.69107 11.6912 10.4579C12.2491 11.2248 12.5554 12.1457 12.5678 13.0941C12.5438 13.1158 12.521 13.1375 12.4965 13.1586C12.3925 13.2501 12.2851 13.3369 12.1766 13.4208C12.1126 13.4699 12.0487 13.5184 11.9829 13.5653C11.8795 13.6401 11.7745 13.711 11.6676 13.7789C11.5899 13.8286 11.5105 13.8766 11.4305 13.9234C11.33 13.9806 11.2278 14.0377 11.1244 14.0949C11.0329 14.1417 10.9398 14.1857 10.8462 14.2291C10.7525 14.2725 10.6491 14.3188 10.5481 14.3594C10.4469 14.3999 10.3396 14.4382 10.2339 14.4737C10.1373 14.5068 10.0409 14.5411 9.94319 14.5703C9.82891 14.6046 9.70961 14.6326 9.59126 14.6611C9.49874 14.6829 9.40729 14.7074 9.31369 14.7257C9.17825 14.752 9.04006 14.7703 8.90126 14.789C8.82248 14.7993 8.74418 14.8135 8.66481 14.8216C8.44545 14.8427 8.22321 14.8553 7.99871 14.8553C7.77422 14.8553 7.55198 14.8427 7.33262 14.8216C7.25324 14.8135 7.17495 14.7993 7.09617 14.789C6.95738 14.7702 6.81907 14.7519 6.68374 14.7257C6.59002 14.7074 6.49869 14.6829 6.40616 14.6611C6.28794 14.6326 6.17019 14.604 6.05424 14.5703C5.95657 14.5411 5.85998 14.5069 5.76351 14.4737C5.65784 14.4371 5.55217 14.4001 5.44935 14.3594C5.34654 14.3189 5.24935 14.2743 5.15121 14.2291C5.05295 14.1839 4.96437 14.1417 4.87304 14.0949C4.76964 14.0412 4.66743 13.9846 4.56689 13.9234C4.48692 13.8766 4.40755 13.8286 4.32985 13.7789C4.22298 13.7109 4.1179 13.6401 4.01449 13.5653C3.94874 13.5184 3.88478 13.4699 3.82083 13.4208C3.71229 13.3369 3.60494 13.2493 3.50094 13.1586C3.47524 13.1397 3.45241 13.1157 3.42791 13.0941C3.44034 12.1458 3.7466 11.2248 4.30451 10.4579C4.8624 9.69107 5.64456 9.11621 6.54293 8.81257H6.54296ZM13.5812 11.9613C13.4002 11.1172 13.0312 10.3247 12.5018 9.64312C11.9722 8.96139 11.2957 8.40779 10.5228 8.02358C11.1261 7.36645 11.4493 6.49991 11.4239 5.60813C11.3985 4.71634 11.0264 3.86963 10.3866 3.24791C9.74694 2.62607 8.88995 2.2783 7.9978 2.2783C7.10564 2.2783 6.24868 2.62604 5.609 3.24791C4.96922 3.86963 4.5971 4.71634 4.57173 5.60813C4.54627 6.49991 4.86951 7.36645 5.47282 8.02358C4.69986 8.40779 4.0234 8.96139 3.49382 9.64312C2.96437 10.3247 2.59536 11.1172 2.41438 11.9613C1.57915 10.7847 1.13673 9.37464 1.15001 7.93183C1.16328 6.48908 1.63175 5.08736 2.4885 3.92658C3.34524 2.76559 4.54664 1.90492 5.92148 1.46691C7.2962 1.02893 8.77421 1.03609 10.1446 1.48747C11.515 1.93873 12.7079 2.81115 13.5534 3.98038C14.3988 5.14961 14.8535 6.55576 14.8528 7.99848C14.8528 9.41969 14.4083 10.8053 13.5813 11.9612L13.5812 11.9613Z" fill="white" fill-opacity="0.6"/>
</g>
<defs>
<clipPath id="clip0_2911_63094">
<rect width="16" height="16" fill="white" transform="translate(0 0.000793457)"/>
</clipPath>
</defs>
</svg>
