<svg width="16" height="16" viewBox="0 0 16 16" fill="none" xmlns="http://www.w3.org/2000/svg">
<g clip-path="url(#clip0_2911_63067)">
<path d="M12.4507 10.5913V11.6352C14.0641 12.0339 14.9941 12.6412 14.9941 13.0968C14.9941 13.875 12.4316 15.0138 8.42675 15.0138C4.40284 15.0138 1.84045 13.8749 1.84045 13.0968C1.84045 12.3185 4.40291 11.1798 8.42675 11.1798C8.84433 11.1798 9.22394 11.1798 9.60352 11.2178V10.1929C9.22394 10.1739 8.82528 10.1549 8.42675 10.1549C4.64959 10.1549 0.834473 11.1609 0.834473 13.0778C0.834473 14.9949 4.64959 16.0008 8.42675 16.0008C12.2039 16.0008 16.0001 14.9948 16.0001 13.0778C16.0001 11.9009 14.5006 11.0658 12.4507 10.5913H12.4507Z" fill="white" fill-opacity="0.6"/>
<path d="M4.4978 13.1155C4.4978 13.4761 5.12417 13.7799 5.90241 13.7799C6.68066 13.7799 7.30702 13.4761 7.30702 13.1155C7.30702 12.7548 6.68066 12.4511 5.90241 12.4511C5.12417 12.47 4.4978 12.7548 4.4978 13.1155Z" fill="white" fill-opacity="0.6"/>
<path d="M6.30095 3.33902L10.5147 5.59775V12.5637C10.5147 12.8483 10.7424 13.0762 11.0272 13.0762C11.3118 13.0762 11.5397 12.8485 11.5397 12.5637L11.5396 0.510925C11.5396 0.340129 11.4446 0.16934 11.2928 0.0744025C11.1409 -0.0205282 10.9512 -0.0205282 10.7993 0.0554695L6.30088 2.447C6.13008 2.54193 6.03516 2.71273 6.03516 2.88353C6.03516 3.05445 6.14902 3.26324 6.30088 3.3391L6.30095 3.33902Z" fill="white" fill-opacity="0.6"/>
<path d="M3.53268 4.06027C3.30495 3.88948 3.07711 3.71869 2.83042 3.54776C2.05218 3.03525 1.23594 2.56073 0.400894 2.18115C0.28703 2.12421 0.135171 2.16221 0.0593094 2.27608C-0.0356212 2.38994 -0.0165557 2.56073 0.116241 2.65566C0.837542 3.18712 1.5018 3.77549 2.10925 4.40189C2.28004 4.57268 2.4319 4.76256 2.58377 4.93335C2.81136 4.55377 3.11509 4.23109 3.53267 4.0603L3.53268 4.06027Z" fill="white" fill-opacity="0.6"/>
<path d="M3.19109 5.97734C3.22909 6.64174 3.79854 7.13517 4.4628 7.09717C5.1272 7.05917 5.62063 6.48972 5.58263 5.82546C5.54463 5.16107 4.97518 4.66764 4.31092 4.70564C3.64666 4.74364 3.13415 5.31295 3.19109 5.97734V5.97734Z" fill="white" fill-opacity="0.6"/>
<path d="M23.9979 0.000869198C22.4026 -0.00116302 20.8434 0.474503 19.5208 1.36663C18.1981 2.25875 17.1732 3.52649 16.5777 5.00618C15.982 6.48608 15.8432 8.11049 16.179 9.66999C16.5149 11.2295 17.31 12.6528 18.4619 13.7563C18.4664 13.7609 18.4682 13.7678 18.4728 13.7718C18.519 13.8163 18.5693 13.854 18.6161 13.8969C18.7446 14.0112 18.8731 14.1294 19.0085 14.2396C19.0811 14.2968 19.1565 14.3539 19.2308 14.4064C19.3587 14.5018 19.4867 14.5972 19.6203 14.6852C19.7112 14.7423 19.8049 14.7994 19.8979 14.8566C20.0213 14.9308 20.1442 15.0056 20.2715 15.0737C20.3794 15.1308 20.4896 15.1799 20.5994 15.2319C20.7194 15.2891 20.8376 15.3462 20.9604 15.3976C21.0832 15.449 21.2066 15.4891 21.3311 15.5335C21.4556 15.5781 21.563 15.6193 21.6824 15.6558C21.8172 15.6964 21.9554 15.7278 22.0925 15.7615C22.2068 15.7895 22.3176 15.8215 22.4352 15.8444C22.5929 15.8758 22.7529 15.8958 22.9128 15.9175C23.0117 15.9313 23.1081 15.9506 23.2082 15.9603C23.4698 15.986 23.7337 16.0003 23.9999 16.0003C24.2661 16.0003 24.53 15.9861 24.7916 15.9603C24.8915 15.9506 24.9881 15.9311 25.087 15.9175C25.2469 15.8958 25.4069 15.8758 25.5645 15.8444C25.6788 15.8215 25.793 15.7872 25.9073 15.7615C26.0444 15.7278 26.1826 15.6964 26.3174 15.6558C26.4368 15.6193 26.5522 15.5747 26.6687 15.5335C26.7852 15.4924 26.9177 15.4478 27.0394 15.3976C27.1611 15.3473 27.2805 15.2885 27.4004 15.2319C27.5101 15.1799 27.6204 15.1308 27.7283 15.0737C27.8557 15.0056 27.9785 14.9308 28.1019 14.8566C28.195 14.7994 28.2887 14.7474 28.3795 14.6852C28.5131 14.5972 28.6411 14.5018 28.769 14.4064C28.8433 14.3492 28.9187 14.2978 28.9912 14.2396C29.1267 14.1311 29.2552 14.0157 29.3837 13.8969C29.4306 13.8541 29.4808 13.8163 29.527 13.7718C29.5316 13.7678 29.5334 13.7609 29.5379 13.7563H29.5381C30.6904 12.6525 31.4856 11.2288 31.8212 9.66876C32.1569 8.10877 32.0178 6.48397 31.4216 5.00403C30.8255 3.52388 29.7997 2.25627 28.4765 1.36448C27.1533 0.472698 25.5933 -0.00234406 23.9975 0.000654982L23.9979 0.000869198ZM25.1175 7.6928C25.1146 7.6928 25.1112 7.6928 25.1078 7.69626V7.69614C24.9564 7.78054 24.7962 7.84832 24.6303 7.89841C24.6006 7.90701 24.5731 7.91837 24.5417 7.92578C24.4846 7.9406 24.4245 7.95088 24.3657 7.96116C24.255 7.98053 24.1429 7.99188 24.0304 7.99487H23.9653H23.9654C23.8529 7.99189 23.7408 7.98053 23.6301 7.96116C23.5729 7.95088 23.5125 7.9406 23.4541 7.92578C23.4239 7.91837 23.397 7.90689 23.3655 7.89841C23.1996 7.84832 23.0394 7.78054 22.888 7.69614L22.8777 7.69268C22.2863 7.36024 21.8733 6.78201 21.7504 6.11484C21.6275 5.44756 21.8076 4.7602 22.2416 4.23888C22.6758 3.71745 23.3192 3.41595 23.9977 3.41595C24.6761 3.41595 25.3194 3.71744 25.7536 4.23888C26.1877 4.7602 26.3677 5.44756 26.2448 6.11484C26.1219 6.78201 25.7089 7.36021 25.1176 7.69268L25.1175 7.6928ZM22.543 8.81242C23.4634 9.25031 24.5324 9.25031 25.4528 8.81242C26.3512 9.11605 27.1333 9.69092 27.6912 10.4578C28.2491 11.2247 28.5554 12.1456 28.5678 13.0939C28.5438 13.1157 28.521 13.1373 28.4965 13.1585C28.3925 13.2499 28.2851 13.3367 28.1766 13.4206C28.1126 13.4698 28.0487 13.5183 27.9829 13.5651C27.8795 13.64 27.7745 13.7109 27.6676 13.7788C27.5899 13.8285 27.5105 13.8764 27.4305 13.9233C27.33 13.9804 27.2278 14.0376 27.1244 14.0947C27.0329 14.1416 26.9398 14.1856 26.8462 14.229C26.7525 14.2724 26.6491 14.3186 26.5481 14.3593C26.4469 14.3998 26.3396 14.438 26.2339 14.4735C26.1373 14.5067 26.0409 14.541 25.9432 14.5701C25.8289 14.6044 25.7096 14.6324 25.5913 14.661C25.4987 14.6827 25.4073 14.7072 25.3137 14.7255C25.1782 14.7518 25.0401 14.7701 24.9013 14.7889C24.8225 14.7992 24.7442 14.8134 24.6648 14.8214C24.4454 14.8426 24.2232 14.8551 23.9987 14.8551C23.7742 14.8551 23.552 14.8426 23.3326 14.8214C23.2532 14.8134 23.1749 14.7992 23.0962 14.7889C22.9574 14.77 22.8191 14.7517 22.6837 14.7255C22.59 14.7072 22.4987 14.6827 22.4062 14.661C22.2879 14.6324 22.1702 14.6038 22.0542 14.5701C21.9566 14.541 21.86 14.5068 21.7635 14.4735C21.6578 14.437 21.5522 14.3999 21.4493 14.3593C21.3465 14.3187 21.2494 14.2741 21.1512 14.229C21.053 14.1838 20.9644 14.1416 20.873 14.0947C20.7696 14.041 20.6674 13.9845 20.5669 13.9233C20.4869 13.8764 20.4075 13.8285 20.3298 13.7788C20.223 13.7107 20.1179 13.64 20.0145 13.5651C19.9487 13.5183 19.8848 13.4698 19.8208 13.4206C19.7123 13.3367 19.6049 13.2492 19.5009 13.1585C19.4752 13.1396 19.4524 13.1156 19.4279 13.0939C19.4403 12.1456 19.7466 11.2247 20.3045 10.4578C20.8624 9.69092 21.6446 9.11605 22.5429 8.81242H22.543ZM29.5812 11.9611C29.4002 11.117 29.0312 10.3246 28.5018 9.64297C27.9722 8.96124 27.2957 8.40764 26.5228 8.02342C27.1261 7.3663 27.4493 6.49976 27.4239 5.60797C27.3985 4.71619 27.0264 3.86948 26.3866 3.24776C25.7469 2.62592 24.89 2.27815 23.9978 2.27815C23.1056 2.27815 22.2487 2.62589 21.609 3.24776C20.9692 3.86948 20.5971 4.71619 20.5717 5.60797C20.5463 6.49976 20.8695 7.3663 21.4728 8.02342C20.6999 8.40764 20.0234 8.96124 19.4938 9.64297C18.9644 10.3246 18.5954 11.117 18.4144 11.9611C17.5791 10.7846 17.1367 9.37449 17.15 7.93168C17.1633 6.48893 17.6318 5.08721 18.4885 3.92643C19.3452 2.76543 20.5466 1.90477 21.9215 1.46676C23.2962 1.02877 24.7742 1.03594 26.1446 1.48732C27.515 1.93858 28.7079 2.811 29.5534 3.98022C30.3988 5.14945 30.8535 6.5556 30.8528 7.99833C30.8528 9.41954 30.4083 10.8052 29.5813 11.961L29.5812 11.9611Z" fill="white" fill-opacity="0.6"/>
</g>
<defs>
<clipPath id="clip0_2911_63067">
<rect width="16" height="16.0002" fill="white" transform="translate(0 0.000640869)"/>
</clipPath>
</defs>
</svg>
